# xmcd CD database file
#
# Track frame offsets:
#	150
#	11609
#	52136
#	69031
#	92369
#	108084
#	126149
#	138276
#	150362
#
# Disc length: 2214 seconds
#
# Revision: 0
# Processed by: cddbd v1.5.1PL2 Copyright (c) Steve Scherf et al.
# Submitted via: CDex 1.51
#
DISCID=6208a409
DTITLE=Body and Soul - Piano Therapy
DYEAR=2005
DGENRE=New Age
TTITLE0=Pachelbel's Canon In D
TTITLE1=Belongings
TTITLE2=One True Love
TTITLE3=Reminiscing At Twilight
TTITLE4=Ave Maria
TTITLE5=Air On A G String
TTITLE6=Precious Moments
TTITLE7=Wonderous Love
TTITLE8=The Water is Wide
EXTD=YEAR: 2005
EXTT0=
EXTT1=
EXTT2=
EXTT3=
EXTT4=
EXTT5=
EXTT6=
EXTT7=
EXTT8=
PLAYORDER=
